<?xml version="1.0" encoding="UTF-8" standalone="no"?>
<!-- Created with Inkscape (http://www.inkscape.org/) -->

<svg
   xmlns:dc="http://purl.org/dc/elements/1.1/"
   xmlns:cc="http://creativecommons.org/ns#"
   xmlns:rdf="http://www.w3.org/1999/02/22-rdf-syntax-ns#"
   xmlns:svg="http://www.w3.org/2000/svg"
   xmlns="http://www.w3.org/2000/svg"
   xmlns:sodipodi="http://sodipodi.sourceforge.net/DTD/sodipodi-0.dtd"
   xmlns:inkscape="http://www.inkscape.org/namespaces/inkscape"
   width="210mm"
   height="297mm"
   id="svg8244"
   version="1.1"
   inkscape:version="0.48.4 r9939"
   sodipodi:docname="analytic_1.svg">
  <sodipodi:namedview
     id="base"
     pagecolor="#ffffff"
     bordercolor="#666666"
     borderopacity="1.0"
     inkscape:pageopacity="0.0"
     inkscape:pageshadow="2"
     inkscape:zoom="7.919596"
     inkscape:cx="483.96531"
     inkscape:cy="814.37938"
     inkscape:document-units="px"
     inkscape:current-layer="layer1"
     showgrid="false"
     inkscape:window-width="1920"
     inkscape:window-height="1138"
     inkscape:window-x="-8"
     inkscape:window-y="-8"
     inkscape:window-maximized="1" />
  <defs
     id="defs8246">
    <marker
       inkscape:stockid="TriangleOutM"
       orient="auto"
       refY="0"
       refX="0"
       id="TriangleOutM"
       style="overflow:visible">
      <path
         id="path3904"
         d="m 5.77,0 -8.65,5 0,-10 8.65,5 z"
         style="fill-rule:evenodd;stroke:#000000;stroke-width:1pt"
         transform="scale(0.4,0.4)"
         inkscape:connector-curvature="0" />
    </marker>
    <marker
       inkscape:stockid="TriangleOutM"
       orient="auto"
       refY="0"
       refX="0"
       id="marker8264"
       style="overflow:visible">
      <path
         id="path8266"
         d="m 5.77,0 -8.65,5 0,-10 8.65,5 z"
         style="fill-rule:evenodd;stroke:#000000;stroke-width:1pt"
         transform="scale(0.4,0.4)"
         inkscape:connector-curvature="0" />
    </marker>
  </defs>
  <metadata
     id="metadata8249">
    <rdf:RDF>
      <cc:Work
         rdf:about="">
        <dc:format>image/svg+xml</dc:format>
        <dc:type
           rdf:resource="http://purl.org/dc/dcmitype/StillImage" />
        <dc:title />
      </cc:Work>
    </rdf:RDF>
  </metadata>
  <g
     id="layer1"
     inkscape:groupmode="layer"
     inkscape:label="Ebene 1">
    <path
       inkscape:connector-curvature="0"
       id="path4203"
       d="M 493.29126,235.44332 533.00288,195.7317"
       style="fill:#0b1728;stroke:#000000;stroke-width:0.49999991;stroke-linecap:butt;stroke-linejoin:miter;stroke-miterlimit:4;stroke-opacity:1;stroke-dasharray:none;stroke-dashoffset:0" />
    <path
       style="fill:#0b1728;stroke:#000000;stroke-width:0.49999991;stroke-linecap:butt;stroke-linejoin:miter;stroke-miterlimit:4;stroke-opacity:1;stroke-dasharray:none;stroke-dashoffset:0"
       d="M 453.29126,275.44332 493.00288,235.7317"
       id="path8242"
       inkscape:connector-curvature="0" />
    <path
       style="fill:#0b1728;stroke:#000000;stroke-width:0.49999991;stroke-linecap:butt;stroke-linejoin:miter;stroke-miterlimit:4;stroke-opacity:1;stroke-dasharray:none;stroke-dashoffset:0"
       d="m 493.2251,235.39912 21.49177,-51.88574"
       id="path8987"
       inkscape:connector-curvature="0" />
    <path
       inkscape:connector-curvature="0"
       id="path8989"
       d="M 471.57726,287.66163 493.06903,235.7759"
       style="fill:#0b1728;stroke:#000000;stroke-width:0.49999991;stroke-linecap:butt;stroke-linejoin:miter;stroke-miterlimit:4;stroke-opacity:1;stroke-dasharray:none;stroke-dashoffset:0" />
    <g
       style="fill:#0b1728;stroke:#000000;stroke-width:0.49999991;stroke-miterlimit:4;stroke-opacity:1;stroke-dasharray:none"
       id="g8991"
       transform="matrix(0.70710678,-0.70710678,0.70710678,0.70710678,-21.839007,417.08686)">
      <path
         style="fill:#0b1728;stroke:#000000;stroke-width:0.49999991;stroke-linecap:butt;stroke-linejoin:miter;stroke-miterlimit:4;stroke-opacity:1;stroke-dasharray:none"
         d="m 492.63376,235.66653 39.71162,-39.71162"
         id="path8993"
         inkscape:connector-curvature="0" />
      <path
         inkscape:connector-curvature="0"
         id="path8995"
         d="m 452.63376,275.66653 39.71162,-39.71162"
         style="fill:#0b1728;stroke:#000000;stroke-width:0.49999991;stroke-linecap:butt;stroke-linejoin:miter;stroke-miterlimit:4;stroke-opacity:1;stroke-dasharray:none" />
    </g>
    <path
       style="fill:#0b1728;stroke:#000000;stroke-width:0.49999991;stroke-linecap:butt;stroke-linejoin:miter;stroke-miterlimit:4;stroke-opacity:1;stroke-dasharray:none;stroke-dashoffset:0"
       d="M 493.06903,235.39911 471.57726,183.51338"
       id="path8999"
       inkscape:connector-curvature="0" />
    <path
       inkscape:connector-curvature="0"
       id="path9001"
       d="M 514.71687,287.66163 493.2251,235.7759"
       style="fill:#0b1728;stroke:#000000;stroke-width:0.49999991;stroke-linecap:butt;stroke-linejoin:miter;stroke-miterlimit:4;stroke-opacity:1;stroke-dasharray:none;stroke-dashoffset:0" />
    <path
       inkscape:connector-curvature="0"
       id="path9005"
       d="M 493.00288,235.44331 453.29126,195.73169"
       style="fill:#0b1728;stroke:#000000;stroke-width:0.49999991;stroke-linecap:butt;stroke-linejoin:miter;stroke-miterlimit:4;stroke-opacity:1;stroke-dasharray:none;stroke-dashoffset:0" />
    <path
       style="fill:#0b1728;stroke:#000000;stroke-width:0.49999991;stroke-linecap:butt;stroke-linejoin:miter;stroke-miterlimit:4;stroke-opacity:1;stroke-dasharray:none;stroke-dashoffset:0"
       d="M 533.00288,275.44331 493.29126,235.73169"
       id="path9007"
       inkscape:connector-curvature="0" />
    <path
       style="fill:#0b1728;stroke:#000000;stroke-width:0.49999991;stroke-linecap:butt;stroke-linejoin:miter;stroke-miterlimit:4;stroke-opacity:1;stroke-dasharray:none;stroke-dashoffset:0"
       d="M 492.95868,235.50947 441.07294,214.01769"
       id="path9011"
       inkscape:connector-curvature="0" />
    <path
       inkscape:connector-curvature="0"
       id="path9013"
       d="M 545.22119,257.15731 493.33546,235.66554"
       style="fill:#0b1728;stroke:#000000;stroke-width:0.49999991;stroke-linecap:butt;stroke-linejoin:miter;stroke-miterlimit:4;stroke-opacity:1;stroke-dasharray:none;stroke-dashoffset:0" />
    <path
       inkscape:connector-curvature="0"
       id="path9017"
       d="m 492.94315,235.5875 -56.16071,0"
       style="fill:#0b1728;stroke:#000000;stroke-width:0.49999991;stroke-linecap:butt;stroke-linejoin:miter;stroke-miterlimit:4;stroke-opacity:1;stroke-dasharray:none;stroke-dashoffset:0" />
    <path
       style="fill:#0b1728;stroke:#000000;stroke-width:0.49999991;stroke-linecap:butt;stroke-linejoin:miter;stroke-miterlimit:4;stroke-opacity:1;stroke-dasharray:none;stroke-dashoffset:0"
       d="m 549.51169,235.5875 -56.16071,0"
       id="path9019"
       inkscape:connector-curvature="0" />
    <path
       style="fill:#0b1728;stroke:#000000;stroke-width:0.49999991;stroke-linecap:butt;stroke-linejoin:miter;stroke-miterlimit:4;stroke-opacity:1;stroke-dasharray:none;stroke-dashoffset:0"
       d="M 492.95867,235.66553 441.07294,257.1573"
       id="path9023"
       inkscape:connector-curvature="0" />
    <path
       inkscape:connector-curvature="0"
       id="path9025"
       d="m 545.22119,214.01769 -51.88573,21.49177"
       style="fill:#0b1728;stroke:#000000;stroke-width:0.49999991;stroke-linecap:butt;stroke-linejoin:miter;stroke-miterlimit:4;stroke-opacity:1;stroke-dasharray:none;stroke-dashoffset:0" />
    <path
       inkscape:connector-curvature="0"
       id="path3111"
       d="m 399.63242,235.63215 185,0"
       style="fill:none;stroke:#000000;stroke-width:1px;stroke-linecap:butt;stroke-linejoin:miter;stroke-opacity:1;marker-end:url(#TriangleOutM)" />
    <path
       style="fill:none;stroke:#000000;stroke-width:1px;stroke-linecap:butt;stroke-linejoin:miter;stroke-opacity:1;marker-end:url(#TriangleOutM)"
       d="m 493.16142,329.16115 0,-185"
       id="path3113"
       inkscape:connector-curvature="0" />
    <g
       id="g4061"
       transform="matrix(0.25,0,0,0.25,507.06065,139.97159)">
      <g
         word-spacing="normal"
         letter-spacing="normal"
         font-size-adjust="none"
         font-stretch="normal"
         font-weight="normal"
         font-variant="normal"
         font-style="normal"
         stroke-miterlimit="10.433"
         xml:space="preserve"
         transform="matrix(1.0629921,0,0,-1.0629921,-186.02362,789.27165)"
         id="g4063"
         style="font-style:normal;font-variant:normal;font-weight:normal;font-stretch:normal;letter-spacing:normal;word-spacing:normal;text-anchor:start;fill:none;stroke:#000000;stroke-linecap:butt;stroke-linejoin:miter;stroke-miterlimit:10.43299961;stroke-opacity:1;stroke-dasharray:none;stroke-dashoffset:0"><path
           id="path4065"
           d="m 472.96,409 0.05,-0.19 0.06,-0.19 0.07,-0.18 0.08,-0.18 0.08,-0.17 0.09,-0.16 0.09,-0.16 0.1,-0.16 0.11,-0.15 0.11,-0.15 0.11,-0.14 0.13,-0.13 0.12,-0.13 0.14,-0.12 0.14,-0.12 0.14,-0.11 0.15,-0.11 0.15,-0.1 0.15,-0.09 0.16,-0.09 0.17,-0.08 0.17,-0.07 0.17,-0.07 0.18,-0.06 0.17,-0.06 0.19,-0.04 0.18,-0.05 0.19,-0.03 0.19,-0.02 0.2,-0.02 0.2,-0.01 0.19,-0.01 c 1.74,0 2.9,1.14 3.69,2.74 0.85,1.79 1.49,4.84 1.49,4.93 0,0.5 -0.44,0.5 -0.6,0.5 -0.5,0 -0.54,-0.2 -0.7,-0.9 -0.69,-2.78 -1.64,-6.17 -3.73,-6.17 -1.05,0 -1.54,0.65 -1.54,2.29 0,1.1 0.6,3.44 0.99,5.17 l 1.4,5.4 c 0.15,0.75 0.65,2.64 0.85,3.39 0.25,1.14 0.75,3.03 0.75,3.32 0,0.91 -0.7,1.35 -1.45,1.35 -0.25,0 -1.55,-0.05 -1.94,-1.74 -0.96,-3.64 -3.14,-12.36 -3.74,-15 -0.06,-0.2 -2.04,-4.18 -5.68,-4.18 -2.6,0 -3.1,2.25 -3.1,4.09 0,2.78 1.41,6.72 2.71,10.16 0.59,1.5 0.84,2.18 0.84,3.14 0,2.23 -1.59,4.07 -4.09,4.07 -4.74,0 -6.58,-7.21 -6.58,-7.67 0,-0.5 0.5,-0.5 0.61,-0.5 0.5,0 0.54,0.11 0.79,0.91 1.24,4.33 3.14,6.17 5.03,6.17 0.44,0 1.25,-0.05 1.25,-1.64 0,-1.2 -0.56,-2.64 -0.85,-3.39 -1.85,-4.94 -2.9,-8.02 -2.9,-10.45 0,-4.74 3.44,-5.99 6.15,-5.99 3.28,0 5.07,2.24 5.92,3.35 z"
           inkscape:connector-curvature="0"
           style="fill:#000000;stroke-width:0" /></g>    </g>
    <g
       transform="matrix(0.25,0,0,0.25,424.85552,57.114443)"
       id="g4323">
      <g
         style="font-style:normal;font-variant:normal;font-weight:normal;font-stretch:normal;letter-spacing:normal;word-spacing:normal;text-anchor:start;fill:none;stroke:#000000;stroke-linecap:butt;stroke-linejoin:miter;stroke-miterlimit:10.43299961;stroke-opacity:1;stroke-dasharray:none;stroke-dashoffset:0"
         id="g4325"
         transform="matrix(1.0629921,0,0,-1.0629921,-186.02362,789.27165)"
         xml:space="preserve"
         stroke-miterlimit="10.433"
         font-style="normal"
         font-variant="normal"
         font-weight="normal"
         font-stretch="normal"
         font-size-adjust="none"
         letter-spacing="normal"
         word-spacing="normal"><path
           style="fill:#000000;stroke-width:0"
           inkscape:connector-curvature="0"
           d="m 478.83,424.73 0,0.12 0,0.13 -0.01,0.12 0,0.11 -0.01,0.12 -0.01,0.11 -0.01,0.11 -0.02,0.1 -0.03,0.21 -0.03,0.19 -0.05,0.18 -0.04,0.18 -0.06,0.16 -0.06,0.16 -0.06,0.15 -0.07,0.13 -0.07,0.13 -0.07,0.12 -0.08,0.12 -0.08,0.1 -0.08,0.1 -0.09,0.09 -0.08,0.08 -0.09,0.07 -0.09,0.07 -0.09,0.06 -0.1,0.05 -0.09,0.05 -0.09,0.04 -0.09,0.03 -0.09,0.03 -0.1,0.03 -0.09,0.01 -0.08,0.02 -0.09,0 -0.09,0 c -1.25,0 -2.43,-1.29 -2.43,-2.39 0,-0.64 0.25,-0.93 0.79,-1.48 1.05,-1 1.69,-2.3 1.69,-4.09 0,-2.1 -3.03,-13.5 -8.86,-13.5 -2.54,0 -3.69,1.75 -3.69,4.32 0,2.8 1.35,6.44 2.9,10.57 0.34,0.86 0.59,1.54 0.59,2.5 0,2.23 -1.59,4.07 -4.09,4.07 -4.68,0 -6.58,-7.21 -6.58,-7.67 0,-0.5 0.5,-0.5 0.61,-0.5 0.5,0 0.54,0.11 0.79,0.91 1.44,5.03 3.58,6.17 5.03,6.17 0.4,0 1.25,0 1.25,-1.59 0,-1.25 -0.5,-2.6 -0.85,-3.49 -2.19,-5.78 -2.83,-8.08 -2.83,-10.22 0,-5.37 4.37,-6.17 6.67,-6.17 8.37,0 11.2,16.49 11.2,19.08 z"
           id="path4327" /></g>    </g>
    <g
       id="g4582"
       transform="matrix(0.25,0,0,0.25,468.66992,83.453478)">
      <g
         word-spacing="normal"
         letter-spacing="normal"
         font-size-adjust="none"
         font-stretch="normal"
         font-weight="normal"
         font-variant="normal"
         font-style="normal"
         stroke-miterlimit="10.433"
         xml:space="preserve"
         transform="matrix(1.0629921,0,0,-1.0629921,-186.02362,789.27165)"
         id="g4584"
         style="font-style:normal;font-variant:normal;font-weight:normal;font-stretch:normal;letter-spacing:normal;word-spacing:normal;text-anchor:start;fill:none;stroke:#000000;stroke-linecap:butt;stroke-linejoin:miter;stroke-miterlimit:10.43299961;stroke-opacity:1;stroke-dasharray:none;stroke-dashoffset:0"><path
           id="path4586"
           d="m 470.61,422.39 h 4.83 c 3.75,0 4.14,-0.8 4.14,-2.24 0,-0.36 0,-0.95 -0.34,-2.44 -0.11,-0.25 -0.16,-0.45 -0.16,-0.56 0,-0.39 0.3,-0.59 0.6,-0.59 0.5,0 0.5,0.15 0.75,1.05 l 2.75,10.81 c 0.14,0.54 0.14,0.65 0.14,0.79 0,0.1 -0.1,0.55 -0.6,0.55 -0.5,0 -0.54,-0.25 -0.75,-1.05 -1.04,-3.87 -2.18,-4.78 -6.42,-4.78 h -4.53 l 3.19,12.66 c 0.43,1.75 0.5,1.94 2.68,1.94 h 6.58 c 6.13,0 7.27,-1.64 7.27,-5.47 0,-1.16 0,-1.35 -0.14,-2.7 -0.11,-0.65 -0.11,-0.74 -0.11,-0.9 0,-0.25 0.15,-0.59 0.61,-0.59 0.54,0 0.59,0.3 0.69,1.25 l 1,8.61 c 0.15,1.34 -0.1,1.34 -1.35,1.34 h -24.4 c -1,0 -1.5,0 -1.5,-1 0,-0.54 0.45,-0.54 1.39,-0.54 1.84,0 3.23,0 3.23,-0.89 0,-0.21 0,-0.3 -0.25,-1.21 l -6.56,-26.34 c -0.5,-1.95 -0.61,-2.34 -4.55,-2.34 -0.84,0 -1.39,0 -1.39,-0.96 0,-0.59 0.59,-0.59 0.75,-0.59 1.44,0 5.13,0.16 6.58,0.16 1.64,0 5.78,-0.16 7.42,-0.16 0.45,0 1.05,0 1.05,0.95 0,0.39 -0.3,0.49 -0.3,0.55 -0.16,0.05 -0.25,0.05 -1.39,0.05 -1.11,0 -1.36,0 -2.59,0.09 -1.46,0.16 -1.6,0.36 -1.6,1 0,0.09 0,0.41 0.19,1.14 z"
           inkscape:connector-curvature="0"
           style="fill:#000000;stroke-width:0" /><path
           id="path4588"
           d="m 511,394.25 0,0.02 0,0.03 0,0.01 0,0.02 0,0.01 -0.01,0.02 0,0.01 -0.01,0.02 -0.01,0.02 -0.01,0.02 -0.01,0.02 -0.02,0.03 -0.01,0.02 -0.02,0.03 -0.02,0.03 -0.03,0.03 -0.02,0.03 -0.03,0.04 -0.02,0.02 -0.01,0.02 -0.02,0.02 -0.02,0.02 -0.02,0.02 -0.02,0.03 -0.02,0.02 -0.02,0.02 -0.02,0.03 -0.03,0.02 -0.02,0.03 -0.03,0.03 -0.03,0.03 -0.02,0.03 -0.03,0.03 -0.03,0.03 -0.03,0.03 -0.03,0.03 -0.04,0.04 -0.03,0.03 -0.04,0.04 -0.03,0.03 -0.04,0.04 -0.04,0.04 c -6.22,6.28 -7.81,15.69 -7.81,23.31 0,8.67 1.89,17.35 8.01,23.56 0.64,0.61 0.64,0.71 0.64,0.86 0,0.35 -0.18,0.49 -0.48,0.49 -0.5,0 -4.98,-3.38 -7.92,-9.7 -2.55,-5.49 -3.14,-11.02 -3.14,-15.21 0,-3.89 0.54,-9.9 3.28,-15.54 2.98,-6.13 7.28,-9.36 7.78,-9.36 0.3,0 0.48,0.14 0.48,0.5 z"
           inkscape:connector-curvature="0"
           style="fill:#000000;stroke-width:0" /><path
           id="path4590"
           d="m 531.27,409 0.06,-0.19 0.06,-0.19 0.07,-0.18 0.07,-0.18 0.08,-0.17 0.09,-0.16 0.1,-0.16 0.1,-0.16 0.1,-0.15 0.11,-0.15 0.12,-0.14 0.12,-0.13 0.13,-0.13 0.13,-0.12 0.14,-0.12 0.14,-0.11 0.15,-0.11 0.15,-0.1 0.16,-0.09 0.16,-0.09 0.16,-0.08 0.17,-0.07 0.18,-0.07 0.17,-0.06 0.18,-0.06 0.18,-0.04 0.19,-0.05 0.19,-0.03 0.19,-0.02 0.19,-0.02 0.2,-0.01 0.2,-0.01 c 1.74,0 2.89,1.14 3.69,2.74 0.84,1.79 1.48,4.84 1.48,4.93 0,0.5 -0.43,0.5 -0.59,0.5 -0.5,0 -0.55,-0.2 -0.7,-0.9 -0.69,-2.78 -1.64,-6.17 -3.74,-6.17 -1.05,0 -1.53,0.65 -1.53,2.29 0,1.1 0.59,3.44 0.98,5.17 l 1.41,5.4 c 0.14,0.75 0.64,2.64 0.84,3.39 0.25,1.14 0.75,3.03 0.75,3.32 0,0.91 -0.7,1.35 -1.45,1.35 -0.25,0 -1.55,-0.05 -1.94,-1.74 -0.95,-3.64 -3.14,-12.36 -3.73,-15 -0.06,-0.2 -2.05,-4.18 -5.69,-4.18 -2.59,0 -3.09,2.25 -3.09,4.09 0,2.78 1.4,6.72 2.7,10.16 0.6,1.5 0.85,2.18 0.85,3.14 0,2.23 -1.6,4.07 -4.1,4.07 -4.73,0 -6.58,-7.21 -6.58,-7.67 0,-0.5 0.5,-0.5 0.61,-0.5 0.5,0 0.55,0.11 0.8,0.91 1.23,4.33 3.14,6.17 5.03,6.17 0.44,0 1.25,-0.05 1.25,-1.64 0,-1.2 -0.56,-2.64 -0.86,-3.39 -1.84,-4.94 -2.89,-8.02 -2.89,-10.45 0,-4.74 3.44,-5.99 6.14,-5.99 3.28,0 5.08,2.24 5.92,3.35 z"
           inkscape:connector-curvature="0"
           style="fill:#000000;stroke-width:0" /><path
           id="path4592"
           d="m 552.5,406.25 0,0.3 -0.01,0.3 -0.02,0.29 -0.02,0.28 -0.03,0.27 -0.04,0.26 -0.05,0.26 -0.05,0.24 -0.06,0.24 -0.06,0.23 -0.07,0.22 -0.08,0.21 -0.08,0.2 -0.09,0.19 -0.1,0.19 -0.1,0.17 -0.1,0.16 -0.12,0.16 -0.11,0.14 -0.13,0.13 -0.13,0.13 -0.13,0.11 -0.14,0.1 -0.14,0.1 -0.15,0.08 -0.15,0.07 -0.16,0.06 -0.17,0.05 -0.16,0.04 -0.18,0.03 -0.17,0.01 -0.18,0.01 c -1.64,0 -2.64,-1.25 -2.64,-2.64 0,-1.34 1,-2.64 2.64,-2.64 0.59,0 1.25,0.2 1.75,0.64 0.14,0.11 0.2,0.16 0.25,0.16 0.04,0 0.09,-0.05 0.09,-0.75 0,-3.69 -1.73,-6.68 -3.39,-8.32 -0.55,-0.54 -0.55,-0.65 -0.55,-0.79 0,-0.36 0.25,-0.55 0.5,-0.55 0.55,0 4.53,3.83 4.53,9.66 z"
           inkscape:connector-curvature="0"
           style="fill:#000000;stroke-width:0" /><path
           id="path4594"
           d="m 587.78,424.73 0,0.12 0,0.13 0,0.12 -0.01,0.11 -0.01,0.12 -0.01,0.11 -0.01,0.11 -0.01,0.1 -0.03,0.21 -0.04,0.19 -0.04,0.18 -0.05,0.18 -0.05,0.16 -0.06,0.16 -0.07,0.15 -0.06,0.13 -0.07,0.13 -0.08,0.12 -0.07,0.12 -0.08,0.1 -0.09,0.1 -0.08,0.09 -0.09,0.08 -0.09,0.07 -0.09,0.07 -0.09,0.06 -0.09,0.05 -0.09,0.05 -0.1,0.04 -0.09,0.03 -0.09,0.03 -0.09,0.03 -0.09,0.01 -0.09,0.02 -0.09,0 -0.08,0 c -1.25,0 -2.44,-1.29 -2.44,-2.39 0,-0.64 0.25,-0.93 0.8,-1.48 1.04,-1 1.69,-2.3 1.69,-4.09 0,-2.1 -3.04,-13.5 -8.87,-13.5 -2.54,0 -3.68,1.75 -3.68,4.32 0,2.8 1.34,6.44 2.89,10.57 0.34,0.86 0.59,1.54 0.59,2.5 0,2.23 -1.59,4.07 -4.09,4.07 -4.67,0 -6.58,-7.21 -6.58,-7.67 0,-0.5 0.5,-0.5 0.61,-0.5 0.5,0 0.55,0.11 0.8,0.91 1.43,5.03 3.58,6.17 5.03,6.17 0.39,0 1.25,0 1.25,-1.59 0,-1.25 -0.5,-2.6 -0.86,-3.49 -2.19,-5.78 -2.83,-8.08 -2.83,-10.22 0,-5.37 4.37,-6.17 6.67,-6.17 8.38,0 11.2,16.49 11.2,19.08 z"
           inkscape:connector-curvature="0"
           style="fill:#000000;stroke-width:0" /><path
           id="path4596"
           d="m 604.78,418.65 0,0.37 -0.01,0.39 -0.01,0.39 -0.01,0.41 -0.04,0.84 -0.06,0.88 -0.08,0.92 -0.11,0.95 -0.13,0.97 -0.17,1.01 -0.19,1.02 -0.23,1.03 -0.27,1.05 -0.31,1.06 -0.35,1.07 -0.39,1.07 -0.21,0.53 -0.23,0.53 -0.23,0.53 -0.25,0.53 c -2.99,6.12 -7.27,9.36 -7.77,9.36 -0.3,0 -0.5,-0.19 -0.5,-0.49 0,-0.15 0,-0.25 0.94,-1.15 4.89,-4.92 7.73,-12.85 7.73,-23.27 0,-8.51 -1.84,-17.28 -8.03,-23.56 -0.64,-0.59 -0.64,-0.7 -0.64,-0.84 0,-0.3 0.2,-0.5 0.5,-0.5 0.5,0 4.97,3.39 7.92,9.71 2.53,5.47 3.13,11 3.13,15.19 z"
           inkscape:connector-curvature="0"
           style="fill:#000000;stroke-width:0" /></g>    </g>
    <g
       transform="translate(0.08928571,0)"
       style="fill:#5f8dd3;stroke:#5f8dd3;stroke-width:2.20000005;stroke-miterlimit:4.1;stroke-dasharray:2.20000005,4.4000001;stroke-dashoffset:6.05000013"
       id="g3850">
      <path
         inkscape:connector-curvature="0"
         id="path9041"
         d="M 493.20197,235.44332 532.91359,195.7317"
         style="fill:#5f8dd3;stroke:#5f8dd3;stroke-width:2.20000005;stroke-linecap:butt;stroke-linejoin:miter;stroke-miterlimit:4.1;stroke-opacity:1;stroke-dasharray:2.20000005,4.4000001;stroke-dashoffset:6.05000013" />
      <path
         style="fill:#5f8dd3;stroke:#5f8dd3;stroke-width:2.20000005;stroke-linecap:butt;stroke-linejoin:miter;stroke-miterlimit:4.1;stroke-opacity:1;stroke-dasharray:2.20000005,4.4000001;stroke-dashoffset:6.05000013"
         d="M 453.20197,275.44332 492.91359,235.7317"
         id="path9043"
         inkscape:connector-curvature="0" />
      <path
         style="fill:#5f8dd3;stroke:#5f8dd3;stroke-width:2.20000005;stroke-linecap:butt;stroke-linejoin:miter;stroke-miterlimit:4.1;stroke-opacity:1;stroke-dasharray:2.20000005,4.4000001;stroke-dashoffset:6.05000013"
         d="m 493.13581,235.39912 21.49177,-51.88574"
         id="path9045"
         inkscape:connector-curvature="0" />
      <path
         inkscape:connector-curvature="0"
         id="path9047"
         d="M 471.48797,287.66163 492.97974,235.7759"
         style="fill:#5f8dd3;stroke:#5f8dd3;stroke-width:2.20000005;stroke-linecap:butt;stroke-linejoin:miter;stroke-miterlimit:4.1;stroke-opacity:1;stroke-dasharray:2.20000005,4.4000001;stroke-dashoffset:6.05000013" />
      <path
         style="fill:#5f8dd3;stroke:#5f8dd3;stroke-width:2.20000005;stroke-linecap:butt;stroke-linejoin:miter;stroke-miterlimit:4.1;stroke-opacity:1;stroke-dasharray:2.20000005,4.4000001;stroke-dashoffset:6.05000013"
         d="M 492.97974,235.39911 471.48797,183.51338"
         id="path9049"
         inkscape:connector-curvature="0" />
      <path
         inkscape:connector-curvature="0"
         id="path9051"
         d="M 514.62758,287.66163 493.13581,235.7759"
         style="fill:#5f8dd3;stroke:#5f8dd3;stroke-width:2.20000005;stroke-linecap:butt;stroke-linejoin:miter;stroke-miterlimit:4.1;stroke-opacity:1;stroke-dasharray:2.20000005,4.4000001;stroke-dashoffset:6.05000013" />
      <path
         inkscape:connector-curvature="0"
         id="path9053"
         d="M 492.91359,235.44331 453.20197,195.73169"
         style="fill:#5f8dd3;stroke:#5f8dd3;stroke-width:2.20000005;stroke-linecap:butt;stroke-linejoin:miter;stroke-miterlimit:4.1;stroke-opacity:1;stroke-dasharray:2.20000005,4.4000001;stroke-dashoffset:6.05000013" />
      <path
         style="fill:#5f8dd3;stroke:#5f8dd3;stroke-width:2.20000005;stroke-linecap:butt;stroke-linejoin:miter;stroke-miterlimit:4.1;stroke-opacity:1;stroke-dasharray:2.20000005,4.4000001;stroke-dashoffset:6.05000013"
         d="M 532.91359,275.44331 493.20197,235.73169"
         id="path9055"
         inkscape:connector-curvature="0" />
      <path
         style="fill:#5f8dd3;stroke:#5f8dd3;stroke-width:2.20000005;stroke-linecap:butt;stroke-linejoin:miter;stroke-miterlimit:4.1;stroke-opacity:1;stroke-dasharray:2.20000005,4.4000001;stroke-dashoffset:6.05000013"
         d="M 492.86939,235.50947 440.98365,214.01769"
         id="path9057"
         inkscape:connector-curvature="0" />
      <path
         inkscape:connector-curvature="0"
         id="path9059"
         d="M 545.1319,257.15731 493.24617,235.66554"
         style="fill:#5f8dd3;stroke:#5f8dd3;stroke-width:2.20000005;stroke-linecap:butt;stroke-linejoin:miter;stroke-miterlimit:4.1;stroke-opacity:1;stroke-dasharray:2.20000005,4.4000001;stroke-dashoffset:6.05000013" />
      <path
         inkscape:connector-curvature="0"
         id="path9061"
         d="m 492.85386,235.5875 -56.16071,0"
         style="fill:#5f8dd3;stroke:#5f8dd3;stroke-width:2.20000005;stroke-linecap:butt;stroke-linejoin:miter;stroke-miterlimit:4.1;stroke-opacity:1;stroke-dasharray:2.20000005,4.4000001;stroke-dashoffset:6.05000013" />
      <path
         style="fill:#5f8dd3;stroke:#5f8dd3;stroke-width:2.20000005;stroke-linecap:butt;stroke-linejoin:miter;stroke-miterlimit:4.1;stroke-opacity:1;stroke-dasharray:2.20000005,4.4000001;stroke-dashoffset:6.05000013"
         d="m 549.4224,235.5875 -56.16071,0"
         id="path9063"
         inkscape:connector-curvature="0" />
      <path
         style="fill:#5f8dd3;stroke:#5f8dd3;stroke-width:2.20000005;stroke-linecap:butt;stroke-linejoin:miter;stroke-miterlimit:4.1;stroke-opacity:1;stroke-dasharray:2.20000005,4.4000001;stroke-dashoffset:6.05000013"
         d="M 492.86938,235.66553 440.98365,257.1573"
         id="path9065"
         inkscape:connector-curvature="0" />
      <path
         inkscape:connector-curvature="0"
         id="path9067"
         d="m 545.1319,214.01769 -51.88573,21.49177"
         style="fill:#5f8dd3;stroke:#5f8dd3;stroke-width:2.20000005;stroke-linecap:butt;stroke-linejoin:miter;stroke-miterlimit:4.1;stroke-opacity:1;stroke-dasharray:2.20000005,4.4000001;stroke-dashoffset:6.05000013" />
      <path
         inkscape:connector-curvature="0"
         id="path9161"
         d="m 493.05777,235.38359 0,-56.16071"
         style="fill:#5f8dd3;stroke:#5f8dd3;stroke-width:2.20000005;stroke-linecap:butt;stroke-linejoin:miter;stroke-miterlimit:4.1;stroke-opacity:1;stroke-dasharray:2.20000005,4.4000001;stroke-dashoffset:6.05000013" />
      <path
         style="fill:#5f8dd3;stroke:#5f8dd3;stroke-width:2.20000005;stroke-linecap:butt;stroke-linejoin:miter;stroke-miterlimit:4.1;stroke-opacity:1;stroke-dasharray:2.20000005,4.4000001;stroke-dashoffset:6.05000013"
         d="m 493.05777,291.95213 0,-56.16071"
         id="path9163"
         inkscape:connector-curvature="0" />
      <path
         d="m 495.54297,235.84325 c 0,1.41216 -1.14478,2.55695 -2.55695,2.55695 -1.41216,0 -2.55695,-1.14479 -2.55695,-2.55695 0,-1.41217 1.14479,-2.55695 2.55695,-2.55695 1.41217,0 2.55695,1.14478 2.55695,2.55695 z"
         sodipodi:ry="2.5569487"
         sodipodi:rx="2.5569487"
         sodipodi:cy="235.84325"
         sodipodi:cx="492.98602"
         id="path9229"
         style="fill:#5f8dd3;fill-opacity:1;stroke:none"
         sodipodi:type="arc"
         transform="matrix(1.2434339,-0.24733438,0.24733438,1.2434339,-178.27201,64.297995)" />
    </g>
  </g>
</svg>
